<svg width="16" height="16" viewBox="0 0 16 16" fill="none" xmlns="http://www.w3.org/2000/svg">
<path d="M15 8.99998H3.83L8.71 13.88C9.1 14.27 9.1 14.91 8.71 15.3C8.32 15.69 7.69 15.69 7.3 15.3L0.709999 8.70998C0.617295 8.61747 0.543748 8.50758 0.493567 8.3866C0.443385 8.26563 0.417557 8.13595 0.417557 8.00498C0.417557 7.87401 0.443385 7.74433 0.493567 7.62336C0.543748 7.50238 0.617295 7.39249 0.709999 7.29998L7.29 0.699979C7.38258 0.607397 7.49249 0.533957 7.61346 0.483852C7.73442 0.433747 7.86407 0.407959 7.995 0.407959C8.12593 0.407959 8.25558 0.433747 8.37654 0.483852C8.49751 0.533957 8.60742 0.607397 8.7 0.699979C8.79258 0.792561 8.86602 0.902472 8.91613 1.02344C8.96623 1.1444 8.99202 1.27405 8.99202 1.40498C8.99202 1.53591 8.96623 1.66556 8.91613 1.78652C8.86602 1.90749 8.79258 2.0174 8.7 2.10998L3.83 6.99998H15C15.55 6.99998 16 7.44998 16 7.99998C16 8.54998 15.55 8.99998 15 8.99998Z" fill="#909399"/>
</svg>
