<svg width="80" height="40" viewBox="0 0 80 40" fill="none" xmlns="http://www.w3.org/2000/svg">
<path d="M28.156 14.844H18.1953C17.5207 14.844 16.9287 14.3353 16.888 13.662C16.8766 13.4891 16.9008 13.3156 16.9591 13.1524C17.0174 12.9892 17.1086 12.8397 17.2271 12.7132C17.3455 12.5866 17.4886 12.4857 17.6476 12.4167C17.8066 12.3477 17.978 12.3121 18.1513 12.312H28.1067C28.7847 12.312 29.3793 12.8233 29.42 13.5C29.4306 13.6725 29.4057 13.8454 29.3469 14.0079C29.2882 14.1704 29.1968 14.3192 29.0784 14.4451C28.96 14.571 28.8171 14.6714 28.6585 14.74C28.4998 14.8086 28.3288 14.844 28.156 14.844Z" fill="#EE7D00"/>
<path d="M28.156 20.6848H18.1954C17.5207 20.6848 16.9287 20.1762 16.888 19.5035C16.8765 19.3305 16.9007 19.157 16.959 18.9937C17.0172 18.8304 17.1084 18.6809 17.2268 18.5542C17.3453 18.4276 17.4884 18.3267 17.6475 18.2576C17.8065 18.1886 17.978 18.1529 18.1514 18.1528H28.1067C28.7847 18.1528 29.3794 18.6642 29.42 19.3408C29.4306 19.5133 29.4057 19.6862 29.347 19.8487C29.2882 20.0113 29.1969 20.1601 29.0784 20.286C28.96 20.4118 28.8171 20.5122 28.6585 20.5808C28.4999 20.6494 28.3289 20.6848 28.156 20.6848Z" fill="#EE7D00"/>
<path d="M28.156 26.4565H18.1954C17.5207 26.4565 16.9287 25.9478 16.888 25.2745C16.8765 25.1015 16.9007 24.928 16.959 24.7647C17.0172 24.6014 17.1084 24.4519 17.2268 24.3252C17.3453 24.1986 17.4884 24.0977 17.6475 24.0286C17.8065 23.9596 17.978 23.9239 18.1514 23.9238H28.1067C28.7847 23.9238 29.3794 24.4352 29.42 25.1118C29.4307 25.2844 29.4059 25.4573 29.3472 25.6199C29.2885 25.7825 29.1971 25.9314 29.0787 26.0574C28.9603 26.1834 28.8173 26.2838 28.6587 26.3524C28.5 26.421 28.3289 26.4565 28.156 26.4565Z" fill="#EE7D00"/>
<path d="M42.504 13.5849C41.3907 12.7455 40.0343 12.2915 38.64 12.2915C37.2457 12.2915 35.8893 12.7455 34.776 13.5849V13.5815C34.776 13.2431 34.6416 12.9186 34.4023 12.6793C34.163 12.44 33.8384 12.3055 33.5 12.3055C33.1616 12.3055 32.837 12.44 32.5977 12.6793C32.3584 12.9186 32.224 13.2431 32.224 13.5815V25.1815C32.224 25.3491 32.257 25.515 32.3211 25.6698C32.3853 25.8246 32.4792 25.9653 32.5977 26.0838C32.7162 26.2023 32.8569 26.2963 33.0117 26.3604C33.1665 26.4245 33.3324 26.4575 33.5 26.4575C33.6676 26.4575 33.8335 26.4245 33.9883 26.3604C34.1431 26.2963 34.2838 26.2023 34.4023 26.0838C34.5208 25.9653 34.6147 25.8246 34.6789 25.6698C34.743 25.515 34.776 25.3491 34.776 25.1815V18.3875C34.8547 17.4168 35.2959 16.5112 36.0118 15.8509C36.7278 15.1906 37.666 14.824 38.64 14.824C39.6139 14.824 40.5522 15.1906 41.2682 15.8509C41.9841 16.5112 42.4253 17.4168 42.504 18.3875V25.1815C42.504 25.5199 42.6384 25.8445 42.8777 26.0838C43.117 26.3231 43.4416 26.4575 43.78 26.4575C44.1184 26.4575 44.443 26.3231 44.6823 26.0838C44.9216 25.8445 45.056 25.5199 45.056 25.1815V18.7075C45.0569 17.7143 44.8268 16.7344 44.3839 15.8454C43.941 14.9563 43.2974 14.1824 42.504 13.5849Z" fill="#17224D"/>
<path d="M60.57 5.93359C60.2313 5.93377 59.9066 6.06842 59.6672 6.30795C59.4278 6.54748 59.2933 6.87227 59.2933 7.21093V13.8856C58.0506 12.846 56.4904 12.2614 54.8705 12.2282C53.2506 12.195 51.6678 12.7153 50.3835 13.7031C49.0992 14.6908 48.1902 16.0871 47.8065 17.6612C47.4229 19.2354 47.5875 20.8933 48.2733 22.3613C48.9591 23.8292 50.125 25.0194 51.5785 25.7353C53.032 26.4512 54.6862 26.65 56.2679 26.2988C57.8496 25.9477 59.2643 25.0676 60.2783 23.8039C61.2924 22.5402 61.8451 20.9685 61.8453 19.3483V7.21093C61.8455 7.0433 61.8126 6.87729 61.7486 6.72237C61.6846 6.56745 61.5907 6.42665 61.4723 6.30803C61.3539 6.18941 61.2132 6.09529 61.0584 6.03104C60.9036 5.96679 60.7376 5.93368 60.57 5.93359ZM54.7267 23.9156C53.8231 23.9159 52.9398 23.6482 52.1884 23.1463C51.437 22.6445 50.8513 21.9312 50.5054 21.0965C50.1595 20.2618 50.0688 19.3432 50.245 18.457C50.4212 17.5708 50.8562 16.7567 51.495 16.1178C52.1339 15.4788 52.9479 15.0437 53.8341 14.8674C54.7203 14.6911 55.6388 14.7816 56.4736 15.1274C57.3083 15.4732 58.0218 16.0588 58.5237 16.8101C59.0256 17.5614 59.2935 18.4447 59.2933 19.3483C59.2932 20.5594 58.812 21.7209 57.9556 22.5774C57.0993 23.4339 55.9378 23.9152 54.7267 23.9156Z" fill="#17224D"/>
<path d="M77.02 12.4229L77.0066 12.4169C76.8546 12.349 76.6907 12.3118 76.5242 12.3073C76.3577 12.3028 76.192 12.3312 76.0365 12.3908C75.881 12.4505 75.7388 12.5402 75.6181 12.6548C75.4973 12.7694 75.4003 12.9068 75.3327 13.0589L71.4173 21.8523L66.2767 12.9443C66.1075 12.6512 65.8289 12.4373 65.5021 12.3497C65.1753 12.2621 64.8271 12.3078 64.534 12.4769C64.2409 12.6461 64.0271 12.9247 63.9394 13.2515C63.8518 13.5783 63.8975 13.9265 64.0667 14.2196L70.1333 24.7336L66.756 32.3189C66.688 32.471 66.6506 32.635 66.6461 32.8016C66.6416 32.9681 66.6699 33.1339 66.7296 33.2895C66.7892 33.445 66.8789 33.5873 66.9936 33.7081C67.1083 33.829 67.2457 33.926 67.398 33.9936L67.4113 33.9996C67.5635 34.0676 67.7277 34.1048 67.8943 34.1092C68.0609 34.1136 68.2268 34.0851 68.3823 34.0252C68.5379 33.9654 68.6802 33.8755 68.8009 33.7606C68.9217 33.6456 69.0185 33.508 69.086 33.3556L71.7113 27.4669L72.994 24.5863L77.6607 14.1003C77.7291 13.9481 77.7669 13.784 77.7717 13.6172C77.7765 13.4504 77.7484 13.2843 77.6888 13.1285C77.6293 12.9726 77.5396 12.8301 77.4248 12.709C77.31 12.5879 77.1724 12.4907 77.02 12.4229Z" fill="#17224D"/>
<path d="M11.7827 18.4425H11.766C11.2533 18.2252 10.7022 18.1132 10.1454 18.1132H5.80002C5.36577 18.1132 4.94931 17.9407 4.64225 17.6336C4.33519 17.3266 4.16269 16.9101 4.16269 16.4758C4.16269 16.0416 4.33519 15.6251 4.64225 15.3181C4.94931 15.011 5.36577 14.8385 5.80002 14.8385H12.092C12.2584 14.8385 12.4231 14.8057 12.5768 14.7421C12.7304 14.6784 12.8701 14.5851 12.9877 14.4675C13.1053 14.3499 13.1986 14.2103 13.2623 14.0566C13.3259 13.9029 13.3587 13.7382 13.3587 13.5718C13.3587 13.4055 13.3259 13.2408 13.2623 13.0871C13.1986 12.9334 13.1053 12.7938 12.9877 12.6762C12.8701 12.5586 12.7304 12.4653 12.5768 12.4016C12.4231 12.3379 12.2584 12.3052 12.092 12.3052H5.77802C4.99427 12.3419 4.23671 12.5986 3.59211 13.0459C2.94751 13.4933 2.44196 14.1131 2.13336 14.8345C2.13336 14.8345 2.13336 14.8345 2.13336 14.8385C1.86874 15.4565 1.75747 16.1293 1.80904 16.7995C1.8606 17.4698 2.07347 18.1176 2.4295 18.6878C2.78552 19.2581 3.27415 19.7337 3.85372 20.0743C4.43329 20.4149 5.08662 20.6103 5.75802 20.6438C5.77536 20.6438 5.79336 20.6438 5.81136 20.6438H10.1674V20.6485C10.5958 20.6572 11.0038 20.8334 11.3037 21.1395C11.6036 21.4455 11.7717 21.857 11.7717 22.2855C11.7717 22.714 11.6036 23.1255 11.3037 23.4315C11.0038 23.7376 10.5958 23.9139 10.1674 23.9225H4.19402C3.85808 23.9225 3.5359 24.056 3.29835 24.2935C3.06081 24.5311 2.92736 24.8532 2.92736 25.1892C2.92736 25.5251 3.06081 25.8473 3.29835 26.0848C3.5359 26.3224 3.85808 26.4558 4.19402 26.4558H10.246C10.8681 26.4586 11.4822 26.3152 12.0388 26.0373C12.5954 25.7594 13.079 25.3547 13.4507 24.8558C13.9347 24.2421 14.2352 23.5039 14.3174 22.7265V21.8492C14.2387 21.1064 13.962 20.3983 13.5161 19.7991C13.0702 19.1998 12.4716 18.7313 11.7827 18.4425Z" fill="#17224D"/>
</svg>
